<svg xmlns="http://www.w3.org/2000/svg" width="185" height="182" viewBox="0 0 185 182" fill="none">
<g clip-path="url(#clip0_298_272)">
<path d="M78.6191 13.2907L91.8325 0L105.4 13.6466L92.1396 26.9844L78.6191 13.2907Z" fill="white"/>
<path d="M0 90.5971L65.5125 24.701L92.0994 51.4436L118.827 24.5599L185 91.1276L171.192 105.016L118.646 52.1621L92.4866 78.4749L65.5459 51.3697L13.5205 103.7L0 90.5971Z" fill="white"/>
<path d="M26.2461 116.708L65.846 76.8698L79.5868 90.691L53.6609 116.762L65.846 129.018L117.751 76.816L157.819 117.111L118.786 156.365L104.878 142.376L130.918 116.184L118.439 103.632L65.7325 156.654L26.2461 116.708Z" fill="white"/>
<path d="M78.6055 168.414L91.8455 155.096L105.139 168.467L91.6919 182L78.6055 168.414Z" fill="white"/>
</g>
<defs>
<clipPath id="clip0_298_272">
<rect width="185" height="182" fill="white"/>
</clipPath>
</defs>
</svg>